PathFileType	4	(X/Y/Z)	/Users/niels/Desktop/University/Third Semester/Perception and Action/Exam/Gymnastics Motion Tracking/Code for Gym Tracking/Analyzed Data/Webcam_Backflip/id9_1_baseline_Sports2D/id9_1_baseline_Sports2D_px_person00.trc
DataRate	CameraRate	NumFrames	NumMarkers	Units	OrigDataRate	OrigDataStartFrame	OrigNumFrames
29.702970297029704	29.702970297029704	8	22	m	29.702970297029704	50	101
Frame#	Time	Hip			RHip			RKnee			RAnkle			RBigToe			RSmallToe			RHeel			LHip			LKnee			LAnkle			LBigToe			LSmallToe			LHeel			Neck			Head			Nose			RShoulder			RElbow			RWrist			LShoulder			LElbow			LWrist		
		X1	Y1	Z1	X2	Y2	Z2	X3	Y3	Z3	X4	Y4	Z4	X5	Y5	Z5	X6	Y6	Z6	X7	Y7	Z7	X8	Y8	Z8	X9	Y9	Z9	X10	Y10	Z10	X11	Y11	Z11	X12	Y12	Z12	X13	Y13	Z13	X14	Y14	Z14	X15	Y15	Z15	X16	Y16	Z16	X17	Y17	Z17	X18	Y18	Z18	X19	Y19	Z19	X20	Y20	Z20	X21	Y21	Z21	X22	Y22	Z22
50	1.6833333333333331	1.0240170943829883	-0.587799389028021	0.0	0.9974104374680944	-0.588528913241687	0.0	1.0059765586166227	-0.8215890073913809	0.0	0.989563943385923	-1.0416629395847692	0.0	1.0862077013632858	-1.0652862186307657	0.0	1.0643861683933387	-1.075915602335553	0.0	0.9689789042232735	-1.0672662003052982	0.0	1.0508493741220226	-0.5911498173822316	0.0	1.0306720518503834	-0.8132229583037668	0.0	1.009394096380068	-1.0180598417546451	0.0	1.1015457049088366	-1.04778268773296	0.0	1.0913065229459238	-1.0355569249576924	0.0	0.99353359560124	-1.0456050455846302	0.0	1.0568226011126785	-0.27398410690635905	0.0	1.097502218106119	-0.1439409901519306	0.0	1.098455838371282	-0.2216657737400517	0.0	0.9813891304109915	-0.30971801813042676	0.0	0.9242583137843514	-0.4597374160082684	0.0	0.885342753103622	-0.6023716109814164	0.0	1.0928140614663624	-0.3303538746636826	0.0	1.0926296276056795	-0.4663952805814758	0.0	1.1378028129324838	-0.5639296022041351	0.0
51	1.7169999999999999	1.0254641100572255	-0.5901740025557917	0.0	0.9996236865457816	-0.5913813617307294	0.0	1.0063312576709056	-0.8232024126389074	0.0	0.9894463061186958	-1.0414624456913981	0.0	1.0870835003536403	-1.0654412801672284	0.0	1.0643098958189097	-1.0759813822253093	0.0	0.9678629917290544	-1.067837272004702	0.0	1.0515532531468677	-0.5933074773305133	0.0	1.0320757881855058	-0.8153537333931089	0.0	1.0097591556722767	-1.0191376576857532	0.0	1.1012956242601608	-1.0486190265693178	0.0	1.092081279100844	-1.0365938081894968	0.0	0.9934437713679802	-1.047675582162991	0.0	1.0530188913462981	-0.2735349501952354	0.0	1.0930489920904731	-0.14314938998509827	0.0	1.0961281327196701	-0.2206875942868461	0.0	0.9800157913757664	-0.3135176362395214	0.0	0.9356859637338922	-0.4692811172800049	0.0	0.922867412089702	-0.6171238158426912	0.0	1.0890216645938526	-0.3281544640138727	0.0	1.0884489606833136	-0.4661077599242476	0.0	1.1310443361237708	-0.5666037942767052	0.0
52	1.7506666666666666	1.0257065016223674	-0.592511775811877	0.0	1.0009285884569143	-0.5942567053287763	0.0	1.006584245566411	-0.8249122459357173	0.0	0.9895022389579156	-1.0410568075829196	0.0	1.0883836527133655	-1.0656209957188805	0.0	1.0648684572655307	-1.0760499928733198	0.0	0.9667850685794451	-1.0683015919557493	0.0	1.0514354072088894	-0.5953286059737478	0.0	1.0329644065309447	-0.8176431022373001	0.0	1.0096414385083348	-1.019957042872356	0.0	1.1015226683729546	-1.0494648678309717	0.0	1.093046002544959	-1.037766531443757	0.0	0.9923844670038284	-1.0494511299334432	0.0	1.0497366042854122	-0.27320368303657255	0.0	1.0889672501504237	-0.14240628665586447	0.0	1.094068610862207	-0.2197900588316816	0.0	0.9798908818561823	-0.31684721628949525	0.0	0.9489817885400316	-0.47736286316408555	0.0	0.9625707658359943	-0.6264144066774168	0.0	1.08529327917101	-0.32626838074808523	0.0	1.0854448074276046	-0.4663429776639419	0.0	1.1257747815574706	-0.5715705392123848	0.0
53	1.784333333333333	1.0244973928442955	-0.5941193669813163	0.0	1.0012176469793188	-0.5963970674159682	0.0	1.0066147115731716	-0.8262030983730662	0.0	0.989671116795196	-1.0405217047815354	0.0	1.0897907407693916	-1.0659488065402174	0.0	1.065960559771152	-1.0762126719721925	0.0	0.9659599145437363	-1.0686628940950778	0.0	1.0500317689306804	-0.5967175814744091	0.0	1.0329510226445238	-0.8195633124337622	0.0	1.0091992278090285	-1.0204742918374483	0.0	1.1020478017814437	-1.0501682407744344	0.0	1.093879469168171	-1.0389571115846152	0.0	0.990219777440565	-1.0507017723585197	0.0	1.047151713754946	-0.2730993104652841	0.0	1.0854270932183943	-0.14162914494766962	0.0	1.092421074946814	-0.21920888343707448	0.0	0.9810026654245178	-0.3194423195016114	0.0	0.9646195712209293	-0.4834381053337532	0.0	1.003200417753947	-0.629688692989847	0.0	1.081363516285243	-0.32490480739562316	0.0	1.0832879072075912	-0.46660447348541173	0.0	1.1218899044918862	-0.5767637590100009	0.0
54	1.8179999999999998	1.022219135091255	-0.5945257638632023	0.0	1.0009113990195344	-0.5972367130747701	0.0	1.006518221068505	-0.8268210487770756	0.0	0.9899435437490264	-1.040079873460802	0.0	1.0911045510971977	-1.0664439568361281	0.0	1.06745526675352	-1.076586438910889	0.0	0.9656177862291379	-1.069050305361603	0.0	1.0473377325834137	-0.5971238131651407	0.0	1.0318060367813702	-0.8207657731778247	0.0	1.0085539409615565	-1.0208016840753174	0.0	1.1026156615968274	-1.0505270853386586	0.0	1.0944070425228776	-1.0400064422197375	0.0	0.9871185439719481	-1.0513851417903748	0.0	1.0452435680009655	-0.2732146443856766	0.0	1.0825238969348514	-0.14079061915568597	0.0	1.091197635493524	-0.21903110927509428	0.0	0.9831481602268465	-0.3211178814192644	0.0	0.9826957044283439	-0.4870033761015608	0.0	1.043501767214774	-0.6267685236619219	0.0	1.0769760163310669	-0.32396500184086857	0.0	1.081463472835458	-0.4664626935368382	0.0	1.119268731585094	-0.5797930475630749	0.0
55	1.8516666666666666	1.0196341046344428	-0.5937494163840555	0.0	1.000614250684714	-0.5966849393948058	0.0	1.0063884373822103	-0.8269402992417064	0.0	0.9903771212136864	-1.0399539041940133	0.0	1.0922245133075799	-1.0669462598668453	0.0	1.0691947849939683	-1.0771853827159004	0.0	0.9659436066799135	-1.069652915328152	0.0	1.0438587135970088	-0.5965113952250016	0.0	1.0295822505579602	-0.8212195501285834	0.0	1.00782994259621	-1.021082748907296	0.0	1.102989151152861	-1.0502905708422299	0.0	1.0945315493346495	-1.040674447278047	0.0	0.9836886444260088	-1.0515875024604795	0.0	1.0438536103893463	-0.2734464814732353	0.0	1.0802242762939809	-0.13988552235072463	0.0	1.0902776270513768	-0.21910540691118957	0.0	0.9859751533710469	-0.321890337299044	0.0	1.0026743470027328	-0.4878408423116925	0.0	1.0825221092158037	-0.6177539417165155	0.0	1.0720544190110266	-0.32322575792352026	0.0	1.0799089043474797	-0.4656055808535851	0.0	1.1178806609517362	-0.5785507600038371	0.0
56	1.885333333333333	1.0173419872399219	-0.5922223065512187	0.0	1.0006601032002276	-0.5951610361618976	0.0	1.0061754046835272	-0.8269383896795122	0.0	0.9909624170955414	-1.0401692610760827	0.0	1.093032215402997	-1.0671751402526424	0.0	1.0709682565513439	-1.0778377540477069	0.0	0.9669816697610097	-1.0705657925999101	0.0	1.0402473990117764	-0.5951899866502894	0.0	1.026594211500635	-0.8210761369238266	0.0	1.0071324633396574	-1.021336675769853	0.0	1.1029037631566359	-1.0492195388416345	0.0	1.0940282618608872	-1.0406752992090582	0.0	0.9806821930988456	-1.0513967047716526	0.0	1.0427722953036858	-0.2737003947654957	0.0	1.078352370948702	-0.1389485146066627	0.0	1.0894868206658543	-0.2191591473288762	0.0	0.9891074074002255	-0.3220144110374489	0.0	1.0233686881261965	-0.48612592747877387	0.0	1.1199687317835196	-0.6030815965129193	0.0	1.0667249652871234	-0.32253145925418275	0.0	1.0790137160298512	-0.4637694025383636	0.0	1.1173048854285759	-0.571385545356765	0.0
57	1.9189999999999998	1.0154688621072003	-0.5904755772994955	0.0	1.0010722069304323	-0.5933179528353625	0.0	1.0058030029217857	-0.8271054197173312	0.0	0.9915305967547509	-1.0405586657638295	0.0	1.0934483282081788	-1.0669113410949216	0.0	1.0725860901592827	-1.0782684651951988	0.0	0.9685748489153001	-1.0717197576866748	0.0	1.0368251905580368	-0.5936345440114651	0.0	1.023274010019843	-0.8205145387497269	0.0	1.0064781047750981	-1.0214862646206433	0.0	1.102171490830063	-1.047288834646204	0.0	1.0926611114767688	-1.0398978240598096	0.0	0.9785808762168934	-1.0509736239682559	0.0	1.0417763452532185	-0.2739473517846995	0.0	1.0766450508892385	-0.1380545477929107	0.0	1.0886900762016332	-0.2189819531302272	0.0	0.9922416910507033	-0.3218026061600478	0.0	1.0432947476424885	-0.48214386694531003	0.0	1.155824646822541	-0.5835599209731667	0.0	1.0611483620939484	-0.3217908866978017	0.0	1.079190441459987	-0.4607619666893296	0.0	1.11660774366267	-0.5575303593961346	0.0
